<svg width="24" height="24" viewBox="0 0 24 24" fill="none" xmlns="http://www.w3.org/2000/svg">
<path d="M0 9H24V15H0V9Z" fill="#EC1C24"/>
<path d="M20.25 3.75H3.75C1.26488 3.75 0 5.59688 0 7.875V9H24V7.875C24 5.59688 22.7351 3.75 20.25 3.75Z" fill="#1B75BB"/>
<path d="M0 16.125C0 18.4031 1.26488 20.25 3.75 20.25H20.25C22.7351 20.25 24 18.4031 24 16.125V15H0V16.125Z" fill="#29B473"/>
<path fill-rule="evenodd" clip-rule="evenodd" d="M13.2564 13.2113C12.7715 13.965 11.7628 14.4424 10.7071 14.1349C9.71152 13.8435 9.02752 12.8786 9.0849 11.838C9.13965 10.7925 9.92415 9.903 10.9449 9.7215C12.026 9.53063 12.8934 10.1096 13.2654 10.7153C12.8248 10.2848 12.314 10.089 11.7155 10.1584C11.2471 10.2124 10.8549 10.4239 10.5489 10.7809C9.94815 11.4795 9.9699 12.5284 10.5976 13.1884C10.9569 13.5671 11.399 13.7644 11.9214 13.7693C12.4423 13.773 12.884 13.5758 13.2564 13.2113Z" fill="#E6E7E8"/>
<path d="M14.9363 12.2318L15.5063 11.9573L14.9363 11.6813L15.1463 11.0862L14.5481 11.295L14.2725 10.7254L13.9988 11.295L13.4018 11.0862L13.6088 11.6813L13.041 11.9573L13.6088 12.2318L13.4018 12.8288L13.9988 12.6207L14.2725 13.1888L14.5481 12.6207L15.1463 12.8288L14.9363 12.2318Z" fill="#E6E7E8"/>
</svg>
