<svg xmlns="http://www.w3.org/2000/svg" viewBox="0 0 824.54 824.54"><defs><style>.cls-1{fill:#f2f2f2;}.cls-2{fill:#ccc;}.cls-3{fill:#fff;}</style></defs><title>11</title><g id="Layer_2" data-name="Layer 2"><g id="Layer_1-2" data-name="Layer 1"><path class="cls-1" d="M531.74,289c5.59,5.58,3.45,18.39.72,33s-11.27,34-13.71,36.14-9.21-.55-9.21-.55a131,131,0,0,1-25.44,53.74h0c-.57.7-1.15,1.41-1.74,2.11s-1.08,1.25-1.63,1.87c-1.17,1.32-2.37,2.62-3.62,3.9-.39.39-.77.79-1.17,1.18l-1.19,1.17c-28.44,27.39-51.51,34.79-69.46,33.72l-1.26-.1-1.26-.13-1.37-.18-.4-.06-.91-.14-.11,0-1.43-.26-1.29-.27-.18,0q-3-.65-6.18-1.65c-.54-.16-1.08-.34-1.62-.53l-.16-.05-1.47-.52c-1.1-.39-2.21-.81-3.34-1.28-.56-.22-1.12-.45-1.68-.7l0,0-1.66-.74-1.68-.78,0,0-.84-.4-.83-.42c-.57-.28-1.13-.58-1.68-.87l-.1-.06c-.58-.3-1.15-.61-1.72-.94l-.87-.49c-.29-.16-.58-.33-.86-.51-.58-.33-1.16-.68-1.73-1-.37-.22-.74-.45-1.12-.7-.2-.12-.4-.26-.6-.39-.49-.32-1-.65-1.49-1l-.2-.13-.32-.22-1-.71c-.77-.55-1.54-1.12-2.3-1.69-.49-.36-1-.73-1.44-1.1L362,437l-1.24-1-.49-.4c-.47-.39-.93-.78-1.39-1.19-.08-.07-.18-.14-.26-.22-1-.89-2-1.81-3-2.77l-.12-.11c-.26-.24-.51-.49-.76-.74l-.76-.76c-.68-.69-1.36-1.4-2-2.12-.33-.35-.66-.72-1-1.09s-.65-.73-1-1.11-.64-.75-.95-1.14-.64-.77-.95-1.16c-.63-.78-1.24-1.58-1.84-2.39s-1.2-1.64-1.77-2.49-1.14-1.7-1.69-2.58c-.31-.48-.6-1-.89-1.44s-.45-.76-.67-1.14c-.08-.13-.16-.26-.23-.39-.2-.36-.41-.72-.6-1.08-.7-1.26-1.37-2.55-2-3.87-.17-.35-.34-.69-.5-1l-1.27-2.68c-.54-1.15-1.06-2.29-1.57-3.42-12.95-28.54-16.92-48.14-16.92-48.14s-7.64,4.17-10.75,2.13-5.24-12.79-10.24-21.86-10.41-34.35-6.64-43.37,11.48-14.35,17.61-8.77C304,271.8,291.72,241,293.43,226.34s.91-55.38,24.05-71.55,37.79-29.15,62-17.07c0,0,30.91-30,71.51-13.74s68.69,33.23,77,55.9,9.27,54.34,4,72.74c-5.18,18.11-10.29,35.21-10.45,35.74C521.9,288.06,526.32,283.58,531.74,289Z"/><path class="cls-1" d="M384.31,450.05c1.13.45,2.24.88,3.34,1.27C386.55,450.93,385.44,450.51,384.31,450.05Z"/><path class="cls-1" d="M390.9,452.42c2.14.66,4.21,1.22,6.18,1.65Q394.11,453.42,390.9,452.42Z"/><path class="cls-2" d="M802.14,412.27a388.11,388.11,0,0,1-89.43,248.19C706,629.54,697.13,591,691.94,576.65c-7.6-21.07-17.4-31.59-30.16-40.26-18.59-8.25-53.12-22.18-77.9-32.19-7.75-2.41-14.62-4.37-19.68-5.6-20.75-5-46.47-19.28-65-31.94-15.89-10.84-14.49-38.69-15.08-55.34h0a131,131,0,0,0,25.44-53.74s6.77,2.71,9.21.55,11-21.53,13.71-36.14,4.87-27.43-.72-33c-5.42-5.39-9.84-.91-10.13-.61.16-.53,5.27-17.63,10.45-35.74,5.25-18.4,4.32-50.07-4-72.74S491.6,140.27,451,124s-71.51,13.74-71.51,13.74c-24.22-12.08-38.86.91-62,17.07s-22.35,56.88-24.05,71.55S304,271.8,308.09,280.69c-6.13-5.58-13.84-.24-17.61,8.77s1.64,34.29,6.64,43.37,7.13,19.83,10.24,21.86,10.75-2.13,10.75-2.13,4,19.6,16.92,48.14c.51,1.13,1,2.27,1.57,3.42l1.27,2.68c.16.34.33.68.5,1,.63,1.32,1.3,2.61,2,3.87.19.36.4.72.6,1.08-.21-.36-.41-.72-.61-1.08-.86,16.8-.92,44.89-15,55-18.27,13.06-44.27,26.92-65,31.94-5.06,1.23-11.93,3.19-19.68,5.6-24.78,10-59.31,23.94-77.9,32.19-12.76,8.67-22.56,19.19-30.16,40.26-5.19,14.39-14,52.88-20.76,83.81A388.05,388.05,0,0,1,22.4,412.27c0-215,174.9-389.87,389.87-389.87S802.14,197.29,802.14,412.27Z"/><path class="cls-1" d="M712.71,660.46a392.32,392.32,0,0,1-35.89,37.94,389.69,389.69,0,0,1-565-37.94c6.73-30.93,15.57-69.42,20.76-83.81,7.6-21.07,17.4-31.59,30.16-40.26,18.59-8.25,53.12-22.18,77.9-32.19,7.75-2.41,14.62-4.37,19.68-5.6,20.76-5,46.76-18.88,65-31.94,14.08-10.07,14.14-38.16,15-55,.2.36.4.72.61,1.08.07.13.15.26.23.39.22.38.44.76.67,1.14s.58,1,.89,1.44c.54.88,1.11,1.74,1.69,2.58s1.17,1.68,1.77,2.49,1.21,1.61,1.84,2.39c.31.39.62.78.95,1.16s.63.77.95,1.14.65.75,1,1.11.66.74,1,1.09c.66.72,1.34,1.43,2,2.12l.76.76c.25.25.5.5.76.74l.12.11c1,1,2,1.88,3,2.77.08.08.18.15.26.22.46.41.92.8,1.39,1.19l.49.4,1.24,1,.11.1c.48.37.95.74,1.44,1.1.76.57,1.53,1.14,2.3,1.69l1,.71.32.22.2.13c.49.34,1,.67,1.49,1,.2.13.4.27.6.39.38.25.75.48,1.12.7.57.36,1.15.71,1.73,1,.28.18.57.35.86.51s.58.33.87.49c.57.33,1.14.64,1.72.94l.1.06c.55.29,1.11.59,1.68.87l.83.42.84.4,0,0,1.68.78,1.66.74,0,0c.56.25,1.12.48,1.68.7,1.13.47,2.24.89,3.34,1.28l1.47.52.16.05c.54.19,1.08.37,1.62.53q3.21,1,6.18,1.65l.18,0,1.29.27c.49.1,1,.18,1.43.26l.11,0,.91.14.4.06,1.37.18,1.26.13,1.26.1c17.95,1.07,41-6.33,69.46-33.72.41-.39.81-.78,1.19-1.17s.78-.79,1.17-1.18c1.25-1.28,2.45-2.58,3.62-3.9.55-.62,1.09-1.24,1.63-1.87s1.17-1.41,1.74-2.11c.59,16.65-.81,44.5,15.08,55.34,18.55,12.66,44.27,26.92,65,31.94,5.06,1.23,11.93,3.19,19.68,5.6,24.78,10,59.31,23.94,77.9,32.19,12.76,8.67,22.56,19.19,30.16,40.26C697.13,591,706,629.54,712.71,660.46Z"/><path class="cls-3" d="M792.13,251.79A412.37,412.37,0,1,0,105.9,688.15c1,1.14,2,2.27,3.11,3.4q5.73,6.23,11.74,12.24a412,412,0,0,0,583,0q6-6,11.74-12.24,1.58-1.69,3.1-3.4a412.7,412.7,0,0,0,73.5-436.36ZM712.71,660.46a392.32,392.32,0,0,1-35.89,37.94A389.88,389.88,0,0,1,22.4,412.27c0-215,174.9-389.87,389.87-389.87S802.14,197.29,802.14,412.27A388.11,388.11,0,0,1,712.71,660.46Z"/></g></g></svg>