<svg width="875" height="190" viewBox="0 0 875 190" fill="none" xmlns="http://www.w3.org/2000/svg">
<g clip-path="url(#clip0_145_379)">
<path d="M45.4 36.5V74.2H106.2V109.3H45.4V150.2H114.2V186.6H0V0.100006H114.2V36.5H45.4Z" fill="#008080"/>
<path d="M257.9 74.5V112.2H141V74.5H257.9Z" fill="#008080"/>
<path d="M358.125 0.969994C377.735 0.969994 394.872 4.85666 409.535 12.63C424.198 20.4033 435.505 31.3567 443.455 45.49C451.582 59.4467 455.645 75.6117 455.645 93.985C455.645 112.182 451.582 128.347 443.455 142.48C435.505 156.613 424.11 167.567 409.27 175.34C394.607 183.113 377.558 187 358.125 187H288.43V0.969994H358.125ZM355.21 147.78C372.347 147.78 385.685 143.098 395.225 133.735C404.765 124.372 409.535 111.122 409.535 93.985C409.535 76.8483 404.765 63.51 395.225 53.97C385.685 44.43 372.347 39.66 355.21 39.66H333.745V147.78H355.21ZM568.949 188.855C551.459 188.855 535.382 184.792 520.719 176.665C506.232 168.538 494.661 157.232 486.004 142.745C477.524 128.082 473.284 111.652 473.284 93.455C473.284 75.2583 477.524 58.9167 486.004 44.43C494.661 29.9433 506.232 18.6367 520.719 10.51C535.382 2.38333 551.459 -1.68 568.949 -1.68C586.439 -1.68 602.427 2.38333 616.914 10.51C631.577 18.6367 643.061 29.9433 651.364 44.43C659.844 58.9167 664.084 75.2583 664.084 93.455C664.084 111.652 659.844 128.082 651.364 142.745C642.884 157.232 631.401 168.538 616.914 176.665C602.427 184.792 586.439 188.855 568.949 188.855ZM568.949 147.515C583.789 147.515 595.626 142.568 604.459 132.675C613.469 122.782 617.974 109.708 617.974 93.455C617.974 77.025 613.469 63.9517 604.459 54.235C595.626 44.3417 583.789 39.395 568.949 39.395C553.932 39.395 541.919 44.2533 532.909 53.97C524.076 63.6867 519.659 76.8483 519.659 93.455C519.659 109.885 524.076 123.047 532.909 132.94C541.919 142.657 553.932 147.515 568.949 147.515ZM681.609 93.72C681.609 75.3467 685.584 59.005 693.534 44.695C701.484 30.2083 712.526 18.99 726.659 11.04C740.969 2.91332 757.134 -1.15001 775.154 -1.15001C797.238 -1.15001 816.141 4.67999 831.864 16.34C847.588 28 858.099 43.9 863.399 64.04H813.579C809.869 56.2667 804.569 50.3483 797.679 46.285C790.966 42.2217 783.281 40.19 774.624 40.19C760.668 40.19 749.361 45.0483 740.704 54.765C732.048 64.4817 727.719 77.4667 727.719 93.72C727.719 109.973 732.048 122.958 740.704 132.675C749.361 142.392 760.668 147.25 774.624 147.25C783.281 147.25 790.966 145.218 797.679 141.155C804.569 137.092 809.869 131.173 813.579 123.4H863.399C858.099 143.54 847.588 159.44 831.864 171.1C816.141 182.583 797.238 188.325 775.154 188.325C757.134 188.325 740.969 184.35 726.659 176.4C712.526 168.273 701.484 157.055 693.534 142.745C685.584 128.435 681.609 112.093 681.609 93.72Z" fill="#008080"/>
</g>
<defs>
<clipPath id="clip0_145_379">
<rect width="875" height="190" fill="white"/>
</clipPath>
</defs>
</svg>
