<svg width="1426" height="345" viewBox="0 0 1426 345" fill="none" xmlns="http://www.w3.org/2000/svg">
<path d="M320.4 115.5V153.2H381.2V188.3H320.4V229.2H389.2V265.6H275V79.1H389.2V115.5H320.4Z" fill="red"/>
<path d="M532.9 153.5V191.2H416V153.5H532.9Z" fill="red"/>
<path d="M633.125 79.97C652.735 79.97 669.872 83.8567 684.535 91.63C699.198 99.4033 710.505 110.357 718.455 124.49C726.582 138.447 730.645 154.612 730.645 172.985C730.645 191.182 726.582 207.347 718.455 221.48C710.505 235.613 699.11 246.567 684.27 254.34C669.607 262.113 652.558 266 633.125 266H563.43V79.97H633.125ZM630.21 226.78C647.347 226.78 660.685 222.098 670.225 212.735C679.765 203.372 684.535 190.122 684.535 172.985C684.535 155.848 679.765 142.51 670.225 132.97C660.685 123.43 647.347 118.66 630.21 118.66H608.745V226.78H630.21ZM843.949 267.855C826.459 267.855 810.382 263.792 795.719 255.665C781.232 247.538 769.661 236.232 761.004 221.745C752.524 207.082 748.284 190.652 748.284 172.455C748.284 154.258 752.524 137.917 761.004 123.43C769.661 108.943 781.232 97.6367 795.719 89.51C810.382 81.3833 826.459 77.32 843.949 77.32C861.439 77.32 877.427 81.3833 891.914 89.51C906.577 97.6367 918.061 108.943 926.364 123.43C934.844 137.917 939.084 154.258 939.084 172.455C939.084 190.652 934.844 207.082 926.364 221.745C917.884 236.232 906.401 247.538 891.914 255.665C877.427 263.792 861.439 267.855 843.949 267.855ZM843.949 226.515C858.789 226.515 870.626 221.568 879.459 211.675C888.469 201.782 892.974 188.708 892.974 172.455C892.974 156.025 888.469 142.952 879.459 133.235C870.626 123.342 858.789 118.395 843.949 118.395C828.932 118.395 816.919 123.253 807.909 132.97C799.076 142.687 794.659 155.848 794.659 172.455C794.659 188.885 799.076 202.047 807.909 211.94C816.919 221.657 828.932 226.515 843.949 226.515ZM956.609 172.72C956.609 154.347 960.584 138.005 968.534 123.695C976.484 109.208 987.526 97.99 1001.66 90.04C1015.97 81.9133 1032.13 77.85 1050.15 77.85C1072.24 77.85 1091.14 83.68 1106.86 95.34C1122.59 107 1133.1 122.9 1138.4 143.04H1088.58C1084.87 135.267 1079.57 129.348 1072.68 125.285C1065.97 121.222 1058.28 119.19 1049.62 119.19C1035.67 119.19 1024.36 124.048 1015.7 133.765C1007.05 143.482 1002.72 156.467 1002.72 172.72C1002.72 188.973 1007.05 201.958 1015.7 211.675C1024.36 221.392 1035.67 226.25 1049.62 226.25C1058.28 226.25 1065.97 224.218 1072.68 220.155C1079.57 216.092 1084.87 210.173 1088.58 202.4H1138.4C1133.1 222.54 1122.59 238.44 1106.86 250.1C1091.14 261.583 1072.24 267.325 1050.15 267.325C1032.13 267.325 1015.97 263.35 1001.66 255.4C987.526 247.273 976.484 236.055 968.534 221.745C960.584 207.435 956.609 191.093 956.609 172.72Z" fill="#008080"/>
</svg>
